<?xml version="1.0" encoding="UTF-8"?>
<svg id="Layer_1" data-name="Layer 1" xmlns="http://www.w3.org/2000/svg" viewBox="0 0 235 110">
  <defs>
    <style>
      .cls-1, .cls-2 {
        fill: #bc9a5d;
      }

      .cls-3 {
        fill: #bb995c;
      }

      .cls-2 {
        fill-rule: evenodd;
      }
    </style>
  </defs>
  <path class="cls-2" d="m102.98,23.7c-.15.67-.19.81-.2.9-.49,5.06,2.64,8.72,2.64,8.72,1.25,1.58,5.92,6.37,5.92,6.37,3.81,3.85,3.51,6.64,3.51,6.64-.76.07-1.6.88-2.73,1.21-1.14.33-2.06-.09-2.34-.26-1.37-.85-1.74-3.85-1.74-3.85-.4,3.45.88,5.41,1.21,5.76,1.79,1.88,3.78.57,4.55.15.54-.29,1.05-.49,1.31-.59.11-.04.18-.14.18-.25,0-.97.29-3.65.31-3.98.08-1.33-.5-2.88-1.4-4.28-1.15-1.79-2.91-3.63-4.08-4.77-.67-.65-1.17-1.18-1.22-1.23-3.69-3.5-4.67-6.03-4.75-6.23-.83-2.01-.99-3.1-.93-4.32,0-.2-.03-.29-.07-.29-.05,0-.13.12-.17.31"/>
  <path class="cls-2" d="m76.33,26.42c-2.58.06-5.17.42-7.73.75-5.94.76-11.81,1.97-17.77,2.66-1.18.14-2.37.26-3.56.36-6.65.55-10.2-.59-11.4-1.09-.1-.04-.18.08-.11.16,1.39,1.39,2.96,2.59,4.14,3.26,1.4.8,2.41,1.04,4.61,1.04,7.9,0,20.25-2.54,20.89-2.66,10.11-1.9,13.8-1.51,14.01-1.49,1.93.14,3.64.56,5.11,1.1,4.22,1.56,8.28,5.95,9.03,6.76,1.3,1.42,2.29,2.67,3.04,3.65.95,1.25,1.73,2.59,1.73,2.59.96-.38,2-1.12,2.4-1.47,2.59-2.27,1.86-4.68,1.83-5.05-.16-1.6-.06-2.3-.01-2.52,0-.04-.03-.07-.06-.06-1.67.4-2.61,1.46-2.61,1.46-1.34,1.28-1.05,2.71-.84,3.41.03.1.06.19.08.25.64,1.83-.33,3.01-.54,3.15-.09-.15-.21-.35-.34-.57-5.34-8.63-10.81-12.66-14.03-14.25-2.63-1.31-6.25-1.45-7.56-1.45-.13,0-.23,0-.31,0"/>
  <path class="cls-2" d="m67.18,39.27s0,0,0,0c0,0,.02,0,.02,0,0,0,0,0-.03,0m10.42-3.66c-6.49.46-12.84,2.05-19.27,2.95-2.19.31-4.37.56-6.57.69-.09,0-.13.12-.05.17.35.24,1.16.81,1.85,1.12,1.19.55,2.45.45,3.51.33,4.09-.45,6.85-1,10.11-1.62,1.53-.29,2.76-.54,3.93-.72,3.24-.49,6.56-1.02,9.84-1.05,3.79-.04,7.4.95,10.29,3.47.5.44.91.9,1.32,1.41l.59-.48s-1.29-1.86-3.21-3.27c-1.61-1.18-3.4-2.13-5.32-2.66-1.36-.37-2.78-.49-4.21-.49-.94,0-1.89.05-2.81.12Z"/>
  <path class="cls-2" d="m104.61,44.16h0s0,0,0,0m4.72-12.58h0s-.05.02-.06.05c-.14.51-.6,2.88-1.24,3.69-.53.68-1.28.71-1.75.84-1.63.45-2.19,1.31-2.32,1.58-.89,1.88-.98,4.2-.99,4.9,0,.12.09.22.21.23,2.36.17,4.07-1.01,4.91-1.77-.62,1.97-1.74,2.78-2.16,2.97-.92.41-1.32.1-1.32.09l2.4,2.02c1.31-.88,1.92-3.4,2.16-4.27.35-1.26.69-2.69,1.23-4.21.71-2,1.32-2.76,1.5-2.95.03-.04.05-.09.04-.14l-.27-2.12c0-.07-.1-.1-.15-.04-.85.97-1.42,2.63-1.63,3.19-.21.59-.79,2.12-1.03,2.46-1.88,2.62-5.17,2.3-5.17,2.3.18-.9,1.23-1.45,2.24-1.76,1-.3,1.74-.9,1.84-1.01,1.43-1.63,1.58-4.8,1.63-5.98,0-.04-.03-.07-.06-.07Z"/>
  <path class="cls-2" d="m124.34,34.28c-1.74.61-2.76.41-3.19.25-.16-.06-.33,0-.43.14-4.19,5.98-8.19,7.24-8.91,7.46-1.52.48-2.32,0-2.7-.4-.06-.06-.22-.23-.29-.2-.06.03-.03.26-.02.34.15,1.54,1.45,2.5,2.37,2.62,2.82.37,6.25-2.97,6.64-3.33,1.9-1.73,3.04-3.28,3.53-4,.17-.25.47-.36.76-.29,1.05.27,2.04.06,2.69-.17.41-.14.85.06,1,.46.6,1.62,1.71,3.32,1.71,3.32,2,3.11,4.57,4.82,4.95,5.07,2.88,1.93,3.14,3.24,3.14,3.24-2.78-1.08-4.51-.55-4.51-.55.26-1.88-.85-3.1-1.35-3.68-.5-.58-2.65-2.79-2.98-3.14-1.98-2.11-1.87-4.22-1.87-4.22-.67,1.27-3.73,3.4-4.45,3.89-1.6,1.11-2.83,2.34-3.19,2.91-1.03,1.64-1.22,3.23-1.25,4.06,0,.09.12.11.15.03.4-1.19,1.4-2.35,1.4-2.35,1.01-1.24,3.55-3.05,3.74-3.18,2.29-1.55,3.01-2.65,3.23-3.18.15,1.35.67,2.33.67,2.33.86,1.8,2.87,3.59,4,4.82,2.32,2.52,1.2,4.28,1.2,4.28,3.83-.49,5.89.71,5.89.71.11-2.86-.23-4.2-.38-4.69-.42-1.4-1.71-2.46-3.1-3.34-1.39-.88-2.56-1.98-2.56-1.98-2.48-2.37-3.15-4.07-3.58-5.22-.21-.57-.48-1.06-.72-1.45-.25-.41-.69-.64-1.15-.64-.15,0-.3.02-.45.08"/>
  <path class="cls-2" d="m101.82,42.32c-.04,1.81.33,2.64.93,3.21.63.61,2.32,1.11,2.54,1.2,2.49.92,2.43,3.19,2.43,3.19-13.04.44-19.06,6.91-20.19,8.28-.03.04.02.09.06.06,9.82-7.26,18.58-6.25,20.26-5.97.16.03.31-.08.33-.24.71-5-.82-6.04-1.5-6.74-.42-.43-1.89-1.08-2.83-1.47-1.2-.51-1.7-1.18-1.9-1.55-.01-.02-.04-.04-.06-.04-.03,0-.07.02-.07.07"/>
  <path class="cls-2" d="m101.05,42.35c-.42.35-1.3,1.13-1.55,1.96-.37,1.19.3,1.96.53,2.56.35.91.18,1.72.04,2.17-.22-.36-1-1.09-1.25-1.51-1.09-1.83-.45-3.21-.19-3.65.04-.06-.01-.14-.08-.13-1.36.18-2.57.85-3.51,1.6-2.34,1.87-5.91,6.91-6.29,7.46-3.71,5.29-7.37,6.54-7.56,6.61-4.45,1.5-6.74-.78-7.37-1.57-.1-.13-.3-.13-.41,0-1.21,1.44-1.69,4.23-1.69,4.23-.43,2.36-.3,5.62-.94,7.87-.95,3.31-3.54,5.02-4.19,5.4-.09.05-.13.16-.11.25l1.32,5.64s.07.06.1.03c5.47-4.55,5.26-10.87,5.05-12.79,0-.06-.1-.06-.1,0-.36,7.52-5.16,10.2-5.16,10.2l-.25-1.01c1.78-1.55,2.6-2.78,3-3.46.79-1.34,1.31-3.16,1.45-4.75.26-3,.33-4.25.83-6.29.41-1.71,1.07-2.63,1.42-3.02,2.97,3.69,7.63,1.63,7.63,1.63,2.9-1.2,5.43-3.96,6.97-5.89.98-1.23,2.82-4.07,3.44-4.89,1.19-1.58,2.25-2.71,2.43-2.89,1.01-1.06,1.87-1.53,2.37-1.74-.88,2.36,1.07,4.19,1.48,4.54.04.04.11.05.16.02,1.31-.64,2.57-1.95,2.78-2.3,1.14-1.87.16-3.69.02-4.07-.34-.96-.29-1.75-.24-2.12,0-.05-.03-.09-.08-.09-.02,0-.03,0-.05.02"/>
  <path class="cls-2" d="m65.52,32.77s-.04,0-.03,0c.05,0,.06-.01.06-.01,0,0-.02,0-.03,0"/>
  <path class="cls-2" d="m69.93,32.01c-6.14,1.08-12.25,2.16-18.44,2.9,0,0-3.84.47-6.45.3-.12,0-.17.14-.08.21.75.53,2.4,1.61,4.17,1.94,1.51.29,4.1,0,4.1,0,5.15-.68,8.99-1.22,12.72-1.98,1.58-.3,3.14-.57,4.36-.76,2.36-.36,4.87-.68,7.1-.86.52-.04,2.09-.16,4.06,0,3.33.25,6.28,1.94,6.96,2.36,2.42,1.5,4.83,3.85,6.4,5.84-.63.34-1.72,1.08-2.74,2.07-1.28,1.24-3.21,4.15-3.64,4.66-2.09,2.5-4.31,2.5-5,2.44-2.74-.24-3.17-3.01-3.2-4.55,0-.12-.18-.13-.2-.01-.08.51-.1.94-.11,1.24-.16,4.76,3.21,5.52,3.66,5.58,2.82.33,4.32-1.33,4.94-1.96.62-.63,2.69-3.47,2.8-3.63,3.01-3.99,5.47-4.62,5.47-4.62-.76-1.15-2.59-3.34-3.14-3.96-4.31-4.91-8.25-6.62-8.25-6.62-2.41-1.05-4.96-1.42-7.54-1.42-2.66,0-5.35.4-7.96.85"/>
  <path class="cls-2" d="m81.84,38.95h-.03c-.35,0-.7.01-1.05.03-.79.04-1.58.12-2.37.2-4.51.48-8.95,1.28-13.41,2.13-3.06.58-4.75.94-7.84,1.12-.11,0-.14.15-.05.21.54.4,2.01,1.31,4.02,1.14,5.28-.43,10.42-1.82,15.65-2.6,2.59-.39,5.32-.82,7.94-.53,2.14.23,3.74.84,4.96,1.74-.78.71-1.73,2.4-1.93,2.74-.71,1.2-1.55,1.24-1.55,1.24-.35.04-.62-.06-.79-.17-.08-.05-.17.02-.15.11l.5,1.86c.04.14.13.26.26.34.59.34,1.26.07,1.62-.23.66-.54,1.59-2.15,1.82-2.47,1.24-1.8,2.25-2.65,2.25-2.65-1.21-1.51-2.74-2.49-4.35-3.18-1.76-.75-3.59-1.03-5.47-1.03"/>
  <path class="cls-2" d="m77.95,44.5h0s-.04,0-.05.02c-.12.09-.3.27-.53.58-.57.8-.81,1.85-1.2,2.57-.27.52-.63,1.02-1.05,1.3-.4.27-1.2.42-1.68.15-.2-.11.2,2.59.2,2.59,0,0,1.47.17,2.39-1.1.34-.47.5-1.16.7-1.74.2-.54.43-1.49,1.08-1.76.06-.03.1-.09.11-.15l.12-2.37c0-.06-.04-.1-.09-.1"/>
  <path class="cls-2" d="m72.9,45.98c-2.5.48-3.4.82-3.94,1.1-2.03,1.04-2.79,2.96-2.79,2.96,1.27-1.26,3.93-1.87,4.87-2.05.94-.18,2.93-.5,3.69-.84,1.51-.68,1.83-2.08,1.83-2.08-.38.21-1.16.44-3.66.91"/>
  <path class="cls-2" d="m64.23,56.23c-.86,1.01-2.72,3.39-3.63,4.57-.05.06.04.14.1.09.51-.49,1.4-1.33,2.63-2.64.62-.66,3.37-3.31,6.18-3.37l.53-2.36s-3.02.46-5.81,3.72"/>
  <path class="cls-1" d="m105.2,34.24l-1.08-1.44s-.07-.04-.1-.01l-1.44,1.08s-.04.07-.01.1l1.08,1.44s.07.04.1.01l1.44-1.08s.04-.07.01-.1"/>
  <path class="cls-1" d="m84.74,54.46l-2.14-.36s-.09.02-.1.07l-.36,2.14s.02.09.07.1l2.14.36s.09-.02.1-.07l.36-2.14s-.02-.09-.07-.1"/>
  <path class="cls-1" d="m105.11,47.42l-2.02-.78s-.1,0-.11.05l-.78,2.02s0,.1.05.11l2.02.78s.1,0,.11-.05l.78-2.02s0-.1-.05-.11"/>
  <path class="cls-1" d="m96.87,49.58l-1.81-.42s-.08.02-.09.06l-.41,1.76-1.71-.4s-.08.02-.09.06l-.42,1.81s.02.08.06.09l1.81.42s.08-.02.09-.06l.41-1.76,1.71.4s.08-.02.09-.06l.42-1.81s-.02-.08-.06-.09"/>
  <path class="cls-1" d="m79.2,54.63l-1.37-.22s-.06.02-.06.05l-.21,1.34-1.3-.21s-.06.02-.06.05l-.22,1.37s.02.06.05.06l1.37.22s.06-.02.06-.05l.21-1.34,1.3.21s.06-.02.06-.05l.22-1.37s-.02-.06-.05-.06"/>
  <path class="cls-2" d="m86.89,41.02h0s-.04,0-.06.02c-.93.9-1.41,1.83-1.66,2.38-.26.57-.96,2.04-1.23,2.36-2.09,2.45-5.35,1.86-5.35,1.86.25-.88,1.1-1.35,2.38-1.56,1.24-.21,1.8-.75,1.92-.86,1.22-1.12,1.64-2.75,1.78-3.65.01-.09-.11-.13-.15-.05-.33.66-1.12,1.67-2.98,2.11-1.65.39-2.3,1.12-2.44,1.38-1.04,1.8-1.33,4.11-1.4,4.8-.01.12.07.23.19.24,2.73.43,4.84-1.18,5.58-1.84-.72,2.05-1.65,2.91-2.72,3.37-1.24.53-1.83-.02-1.83-.02l1.95,2.28c1.99-1,2.8-3.4,3.11-4.24.45-1.23.93-2.58,1.6-4.05.88-1.93,1.36-1.99,1.55-2.16.04-.03.06-.08.05-.13l-.2-2.16s-.04-.08-.08-.08"/>
  <path class="cls-2" d="m76.94,50.12c-.05.56-.09,1.5.12,2.18.26.83,1.64,1.59,2.08,1.87,1.1.69,1.55,1.52,1.72,1.95-2.27.37-4.52,2.75-4.65,2.91-2.59,3.13-3.14,6.7-3.25,8,0,.06.08.08.1.02.31-.99,1.01-2.58,1.13-2.82,2.46-5.12,5.94-5.61,6.79-5.65.11,0,.2-.08.23-.19.12-.51.41-1.88.19-3.35-.36-2.4-2.19-3.28-3.17-3.88-.62-.38-.95-.81-1.11-1.08-.02-.03-.05-.04-.08-.04-.04,0-.09.03-.09.08"/>
  <path class="cls-2" d="m101.29,16.6h0s0,0,0,0c-.13.03-.09.22-.09.22.36,2.09,1.56,3.45,1.73,3.64,1.48,1.71,4.16,2.03,5.02,2.11.86.08,2.87.26,3.11.28,3.5.25,4.6,2.49,4.6,2.49-2.2.62-3.59.92-4.47,1.05-1.64.24-2.47.05-2.89-.05-2.35-.54-3.24-2.21-3.59-3.21-.09-.24-.17-.5-.22-.62-.09-.23-.15-.17-.15-.17-.03.04-.03.1-.03.2.02.45.21,1.08.4,1.61.22.61.42,1.01.49,1.14,2.29,4.36,7.28,3.27,8.23,3.06.94-.21,3.05-.74,3.45-.82.41-.07.37-.13.37-.13-1.9-5.51-4.22-6.18-5.58-6.5-1.36-.32-4.22-.49-4.22-.49-5.23-.39-5.97-3.61-5.97-3.61-.07-.2-.15-.22-.17-.22"/>
  <path class="cls-2" d="m116,23.16h0s-.02.08-.02.08c.14,1,.74,2.48,2.03,3.22,1.29.74,2.62.44,2.92.4.3-.04.73-.03,1.08.31.3.3.7,1.06.7,1.06-2.6-.75-4.97-.31-5.86-.14-.89.17-2.65.7-4.32,1.01-2.67.5-4.04,0-4.21-.06-3.24-1.13-4.21-4.47-4.21-4.47-.06-.17-.1-.33-.13-.47-.06-.25-.12-.52-.15-.64-.07-.24-.13-.18-.13-.18-.04.04-.04.1-.05.2,0,.03,0,.05,0,.09.11,2.93,1.56,4.5,1.98,4.98,3.24,3.76,7.33,2.72,7.95,2.61.62-.1,3.42-.81,3.68-.88,3.48-.91,6.17.35,6.17.35.18.09.18-.06.17-.1-.23-2.17-.7-3.38-1.22-4.48-.53-1.11-1.88-2.21-3.77-2.24-1.89-.03-2.57-.64-2.57-.64-.01-.01-.02-.02-.03-.02"/>
  <polygon class="cls-1" points="110.39 23.48 110.29 25.3 112.14 25.4 112.24 23.58 110.39 23.48"/>
  <path class="cls-2" d="m103,20.64s-.34.48-1.58,1c-.31.13-.71.24-1.12.36-.36.11-.81.24-1.21.35-1.72.51-3.5,1.39-4.19,3.5-.19.57-.43,1.69-.09,1.06.35-.63,1.26-1.59,3.23-2.16,1.97-.58,3.32-1.04,3.95-1.74.39-.43.88-1.52,1.05-2.1.06-.21.08-.32.04-.32-.02,0-.04.02-.08.06"/>
  <path class="cls-2" d="m103.22,22.83c-.06.02-.18.27-.38.48-.29.31-.93.81-2.28,1.44,0,0-1.36.59-2.69,1.29-1.59.83-3.3,2.01-3.56,4.22-.07.6-.09,1.74.12,1.05.21-.69,1-1.9,2.85-2.9.28-.15.68-.37,1.02-.53,1.84-.9,3.29-1.68,4.01-2.48.55-.61,1.13-2.58.92-2.58,0,0,0,0-.01,0"/>
  <path class="cls-2" d="m102.26,25.83c-.61,1.48-2.42,2.57-4.03,3.67-1.78,1.21-3,2.17-3.9,3.66-.99,1.65-1.23,4.05-1.22,4.72,0,.67.13.37.15.28.26-1.63,1.11-2.75,1.22-2.93.65-1.08,5.08-4.52,5.63-4.93.55-.41,1.69-1.43,2.04-2.28.35-.85.22-2.26.22-2.26,0-.05-.01-.07-.02-.07-.03,0-.09.14-.09.14"/>
  <path class="cls-2" d="m102.61,28.28h0s-.09.2-.14.33c-.53,1.42-3.87,4.59-3.87,4.59-1.4,1.36-1.89,2.59-1.99,2.86-.49,1.43-.38,2.83-.29,3.26.05.28.08.3.1.25.02-.04.1-.95.64-1.84.3-.5.65-1,.98-1.44.54-.71,1-1.2,1-1.2.3-.33.54-.58.77-.83.59-.65,1.57-1.78,1.88-2.18.46-.59.88-1.29,1-1.99.17-.93-.06-1.75-.06-1.75,0-.05-.02-.07-.03-.07"/>
  <path class="cls-2" d="m72.64,48.37s-.46,1.38-.12,2.44c.14.45.38.67.65.93.46.45,1.01.82,1.24,1.06,1.11,1.17.94,2.37.94,2.37-2.34-.75-3.22-2.11-3.4-2.47-.25-.5-.37-1.04-.41-1.56-.09-1.13.07-1.8.11-1.96,0-.02,0-.05-.02-.06-.07-.05-.27-.14-.81-.14-1.29,0-4.48.73-8.05,5.36-.21.28-3.55,4.58-4.53,5.64-1.01,1.09-6.98,7.69-16.42,7.43,0,0-1.11.36,4.37.46,5.48.1,9.76-3.1,11.93-5.53,2.16-2.44,4.5-5.63,5.06-6.35.84-1.09,3.78-4.53,7.68-4.51-.21,2.01.43,3.19.7,3.63.85,1.37,2.63,2.18,3.2,2.4.1.04.21,0,.25-.1,1.65-3.74.83-5.55.66-5.9-.59-1.2-1.83-2.06-1.83-2.06-.56-.39-.9-.85-1.06-1.12-.02-.03-.04-.04-.07-.04-.04,0-.07.03-.08.07"/>
  <path class="cls-1" d="m156.16,64.84l-1.07-1.08-1.07,1.08,1.07,1.08,1.07-1.08Zm-57.26,11.98l1.07,1.08,1.07-1.08-1.07-1.08-1.07,1.08Zm3.63-1.08l-1.07,1.08,1.07,1.08,1.07-1.08-1.07-1.08Zm5.36,1.08l-1.07-1.08-1.07,1.08,1.07,1.08,1.07-1.08Zm23.71-2.57v-8.41c0-.42.28-.66.52-.74h-1.79v9.74h.68c.33,0,.6-.26.6-.58Zm13.15-8.41c0-.42.28-.66.52-.75h-1.79v7.26c0,2.2-.38,3.37-.38,3.37h-1.26c-3.25,0-4.25-2.27-4.25-4.4,0-.69.04-1.12.24-1.72h-1.41c-.25.78-.25,1.48-.25,1.72,0,2.29,1.68,5.02,5.74,5.02h2.27c.4-.98.57-2.3.57-4.05v-6.45Zm-16.61,8.4v-8.41c0-.42.28-.66.52-.74h-1.79v9.06h-4.02c-.57,0-.91-.17-.91-.17,0,0,.86-.3,1.65-.92.59-.46,1.04-.99,1.24-1.53.3-.79.2-1.67-.25-2.35-.7-1.06-2.19-1.46-3.3-1.47-.47,0-.97.04-1.39.12-1.23.23-2.25.73-2.84,1.06v.7c.72.57,1.3,1.31,1.76,2.09.28.47.95,1.59,1.62,2.21-.54.27-1.7.27-1.7.27h-3.42c-.53,0-.84-.05-1.01-.09,0-.03,0-.06,0-.1v-4.99c0-.44.28-.67.51-.74h-1.79v5.59c0,3.84-3.89,3.12-3.89,3.12,0,0,.35.46,1.94.42,1.85-.05,2.97-1.38,3.19-2.88.11.2.3.35.61.35h4.33c.92,0,1.89-.4,1.89-.4,0,0,.54.4,1.64.4h4.83c.33,0,.6-.26.6-.59Zm-8.52-2.84c-.94-1.66-1.8-2.21-1.8-2.21,0,0,1.46-.87,3.07-.87.43,0,.9.09,1.25.22.88.33,1.43,1.23,1.42,2.1,0,1-.56,1.78-1.39,2.38-.24.17-.92.56-.92.56,0,0-.68-.51-1.64-2.19Zm38.34,2.04c.07-.19.11-.51.11-.93v-5.72h-2.69c-2.77,0-3.45,1.71-3.45,2.84,0,1.59,1.23,2.45,1.66,2.66.82.4,2.15.48,3.2,0h0v.33c-.02,1.54-1.3,1.52-1.91,1.53h-6.67v-8.31c0-.42.28-.66.51-.74h-1.79v9.74h9.12c.91,0,1.64-.56,1.91-1.39Zm-2.52-1.42c-.89-.05-2.14-.63-2.14-2.35,0-1.33.72-2.28,2.12-2.28h1.37v4.35s-.36.34-1.35.29Zm-54.78,12.86v-1.26l-1.65.34c.23.07.48.13.48.57v5.29c0,.3-.12.4-.32.52-.43-.22-.53-.39-.63-.68-.21-.54-3.67-9.23-3.67-9.23,0,0-3.44,8.68-3.67,9.23-.12.27-.24.43-.62.7h1.64c-.35-.14-.39-.37-.28-.7.05-.17.4-1.11.84-2.18h3.47c.42,1.1.79,2.01.87,2.18.11.33.01.53-.34.7h4.22c-.2-.13-.35-.23-.35-.54v-4.42c.25-.34.66-.77,1.17-.77.35,0,.59.17.79.44v-1.34c-.16-.07-.19-.11-.51-.11-.47,0-1.17.74-1.45,1.26Zm-7.65,2c.59-1.54,1.5-3.99,1.5-3.99,0,0,.82,2.2,1.51,3.99h-3.02Zm14.57,2.5v-3.82c0-1.68-1.33-1.92-2.1-1.92-1.09,0-1.62.37-2.12.71l.03,1.77c.32-1.03.79-1.94,1.93-1.94.84,0,1.15.64,1.15,1.24,0,.07,0,.54-.05.6-.42.47-2.02.67-2.73,1.14-.7.44-.9,1.07-.9,1.61,0,.61.42,1.74,1.61,1.74.95,0,1.68-.57,2.09-1.04.03.68.16.84.47,1.06l1.03-.48c-.43-.09-.4-.3-.4-.66Zm-1.11-.41c-.38.41-.87.74-1.53.74s-1.02-.43-1.02-1.18.48-1.07,1.11-1.33c.63-.21,1.01-.31,1.43-.54v2.31Zm5.74-5.33c-.82,0-1.3.3-1.84.81v-3.89l-1.66.37c.21.07.47.13.47.57v8.18c.16.09,1.3.83,2.37.83,2.14,0,3.22-1.84,3.22-3.58,0-1.48-.88-3.29-2.56-3.29Zm-.47,6.32c-1.02,0-1.37-.67-1.37-.67v-4.29c.36-.47.9-.59,1.33-.59.76,0,1.81.54,1.81,2.58,0,2.25-1.11,2.97-1.77,2.97Zm11.23-.57v-3.82c0-1.68-1.33-1.92-2.1-1.92-1.09,0-1.62.37-2.12.71l.03,1.77c.32-1.03.79-1.94,1.93-1.94.84,0,1.15.64,1.15,1.24,0,.07,0,.54-.05.6-.42.47-2.02.67-2.73,1.14-.7.44-.9,1.07-.9,1.61,0,.61.42,1.74,1.61,1.74.95,0,1.68-.57,2.09-1.04.03.68.16.84.47,1.06l1.03-.48c-.43-.09-.4-.3-.4-.66Zm-1.11-.41c-.38.41-.87.74-1.53.74s-1.02-.43-1.02-1.18.48-1.07,1.11-1.33c.63-.21,1-.31,1.43-.54v2.31Zm7.84.87v-4.22c0-1.27-.98-1.98-1.98-1.98-.86,0-1.64.67-1.93,1.01v-1.01l-1.61.31c.23.09.44.16.44.6v5.29c0,.31-.12.41-.34.54h1.85c-.21-.13-.35-.23-.35-.54v-4.62c.25-.34.79-.74,1.35-.74,1.18,0,1.42.87,1.42,1.65v3.71c0,.31-.12.41-.35.54h1.84c-.2-.13-.35-.23-.35-.54Zm26.84-2.62c-1.02,2.27-2.65,2.31-3.26,2.31-2.8,0-3.86-2.45-3.86-4.51,0-2.31,1.31-4.22,3.87-4.22.66,0,2.32.21,3.18,2.32.03.06-.12-2.11-.12-2.11-1.05-.48-2.05-.81-3.16-.81-3.4,0-5.13,2.58-5.13,5,0,2.98,2.33,4.95,4.99,4.95,1.01,0,2.27-.26,3.38-.97,0,0,.15-2.01.12-1.97Zm3.6-3.94c-1.86,0-2.96,1.75-2.96,3.45,0,1.51.82,3.42,2.94,3.42,1.78.01,2.95-1.74,2.95-3.42.01-1.7-.9-3.44-2.92-3.45Zm.07,6.32c-1.11.06-1.77-1.25-1.81-2.79-.05-1.51.44-2.95,1.62-3.01,1.19-.04,1.76,1.4,1.82,2.84.05,1.58-.47,2.92-1.64,2.97Zm13.2-.11v-4.25c0-1.34-1.07-1.95-1.98-1.95-.86,0-1.7.67-2.12,1.25-.27-.81-1.07-1.25-1.82-1.25-.91,0-1.64.71-1.96.98v-.98l-1.63.34c.23.07.48.13.48.57v5.29c0,.31-.13.41-.35.54h1.88c-.21-.13-.38-.23-.38-.54v-4.66c.25-.33.74-.73,1.35-.73,1.07,0,1.39.7,1.39,1.51v3.88c0,.31-.13.41-.35.54h1.86c-.21-.13-.35-.23-.35-.54v-4.28c0-.07,0-.14-.03-.21.34-.5.91-.9,1.45-.9,1.03,0,1.41.73,1.41,1.57v3.82c0,.31-.17.41-.38.54h1.86c-.21-.13-.35-.23-.35-.54Zm4.48-6.2c-.86,0-1.57.54-1.84.88v-.88l-1.59.37c.21.07.44.14.44.6v8.48c0,.31-.13.44-.35.54h1.86c-.2-.1-.35-.23-.35-.54v-2.91c.38.2.78.33,1.38.33,2.01,0,3.06-1.94,3.06-3.48,0-2.35-1.47-3.39-2.61-3.39Zm-.6,6.32c-.6,0-.98-.34-1.22-.67v-4.16c.25-.34.78-.7,1.35-.7.68,0,1.82.5,1.82,2.67,0,1.78-.76,2.87-1.96,2.87Zm8.56-.57v-3.82c0-1.68-1.33-1.92-2.1-1.92-1.09,0-1.62.37-2.12.71l.03,1.77c.32-1.03.79-1.94,1.93-1.94.84,0,1.15.64,1.15,1.24,0,.07,0,.54-.05.6-.42.47-2.02.67-2.73,1.14-.7.44-.9,1.07-.9,1.61,0,.61.42,1.74,1.61,1.74.95,0,1.68-.57,2.09-1.04.03.68.16.84.47,1.06l1.03-.48c-.43-.09-.4-.3-.4-.66Zm-1.11-.41c-.38.41-.87.74-1.53.74s-1.02-.43-1.02-1.18.48-1.07,1.11-1.33c.63-.21,1-.31,1.43-.54v2.31Zm7.84.87v-4.22c0-1.27-.98-1.98-1.98-1.98-.86,0-1.63.67-1.93,1.01v-1.01l-1.61.31c.23.09.44.16.44.6v5.29c0,.31-.12.41-.34.54h1.85c-.21-.13-.35-.23-.35-.54v-4.62c.25-.34.79-.74,1.35-.74,1.18,0,1.42.87,1.42,1.65v3.71c0,.31-.12.41-.35.54h1.84c-.2-.13-.35-.23-.35-.54Zm5.32-5.23c-.34.94-.94,2.48-1.61,4.06l-1.45-4.05c-.16-.54.07-.67.38-.78h-2.32c.35.14.47.14.68.67l2.12,5.6c-.42.94-.83,1.85-1.19,2.58-.23.44-.35.77-.92,1.07h1.21c1.17-3.05,2.85-6.86,3.78-9.24.15-.37.38-.54.7-.68h-1.81c.32.07.63.27.44.77Zm-102.66-18.07l-1.07-1.08-1.07,1.08,1.07,1.08,1.07-1.08Zm2.56,0l-1.07-1.08-1.07,1.08,1.07,1.08,1.07-1.08Zm67.98,0l-1.07-1.08-1.07,1.08,1.07,1.08,1.07-1.08Zm2.56,0l-1.07-1.08-1.07,1.08,1.07,1.08,1.07-1.08Zm25.9.84l-1.07-1.08-1.07,1.08,1.07,1.08,1.07-1.08Zm1.49,1.08l1.07-1.08-1.07-1.08-1.07,1.08,1.07,1.08Zm-.21-3.15l-1.07-1.08-1.07,1.08,1.07,1.08,1.07-1.08Zm-14.13,12.41c1.85-.05,2.97-1.38,3.18-2.88.11.2.3.35.61.36h3.59c.65,0,1.21-.28,1.57-.75.01-.02.02-.03.04-.05.01-.02.03-.04.04-.06,0-.01.01-.02.02-.04.67.75,1.49,1.06,2.46,1.06.63,0,1.37-.24,1.8-.85.62.64,1.38.85,2.02.85.97,0,2.18-.56,2.18-2.15v-4.07c0-.31.16-.44.37-.54h-1.65v4.39c0,.84-.43,1.63-1.56,1.63-.31,0-.75-.02-1.24-.3.16-.3.26-.66.26-1.11v-3.45c0-.31.16-.44.37-.54h-1.65v3.77c0,.84-.43,1.63-1.56,1.63-.62,0-1.16-.24-1.67-.55.15-.32.3-.78.3-1.41v-2.29c0-.31.16-.44.37-.54h-1.66v3.16c0,1.52-1.38,1.52-2.01,1.52h-1.95c-.53,0-.84-.05-1.01-.09,0-.03,0-.06,0-.1v-4.98c0-.44.28-.67.51-.74h-1.79v5.58c0,3.84-3.89,3.12-3.89,3.12,0,0,.35.46,1.94.42Zm-64.27,12.48v-6.2l-1.63.34c.21.07.47.13.47.57v5.29c0,.31-.15.41-.35.54h1.86c-.21-.13-.35-.23-.35-.54Zm-1.59-8.27l1,1.07,1-1.07-1-1.07-1,1.07Zm49.73-6.65c.83.07,1.53-.2,2.01-.5v-.35c-.45.19-1.03.3-1.57.2-.71-.13-1.26-.72-1.46-1.51-.13-.55-.08-1.15-.08-1.15.11-2.23,1.74-2.77,2.69-2.77h.6v3.34c0,1.07.12,1.58.5,2.02.36.42.94.65,1.54.65h10.63v-2.83c0-2.23-1.71-3.77-4.49-3.77h-2.28l2.18-2.62c.38-.45.8-.51.8-.51h-2l-3.08,3.72h4.33c1.4,0,3.14.77,3.16,3.18v2.15h-8.44c-.63,0-1.58-.11-1.58-1.54v-4.39h-1.79c-1.85,0-3.95.81-4.11,3.34,0,0-.06.78.15,1.46.19.6.85,1.76,2.29,1.88Zm-55.61-2.29v-3.64h0c0-.42.28-.66.51-.74h-1.79v4.39c-.04,1.54-1.34,1.54-1.97,1.54h-1.86v-5.93h-1.28v5.93h-3.58c-.63,0-1.58-.11-1.58-1.54v-4.39h-1.79c-1.85,0-3.95.81-4.12,3.34,0,0-.06.78.15,1.46.19.6.85,1.76,2.29,1.88.83.07,1.53-.2,2.01-.5v-.35c-.45.19-1.03.3-1.57.2-.71-.13-1.26-.72-1.46-1.51-.13-.54-.08-1.15-.08-1.15.11-2.23,1.74-2.77,2.69-2.77h.6v3.34c0,1.07.12,1.58.5,2.02.36.42.94.65,1.54.65h4.88s.73-.01.79-.48c.1.26.3.48.68.48h2.38c.92,0,1.65-.56,1.92-1.4.07-.19.12-.51.12-.81Z"/>
  <path class="cls-3" d="m136.97,84.67h-2.3v-3.43s2.33.03,2.66.06c.68,0,.99.2,1.19.54v-1.18h-5.58c.22.11.39.31.39.64v8.39c0,.34-.14.51-.39.64h2.12c-.25-.13-.42-.3-.42-.64l.03-4.44h2.3c.19,0,.42.23.49.4v-1.38c-.07.17-.29.4-.49.4m6,4.67v-3.81c0-1.68-1.38-1.92-2.19-1.92-1.13,0-1.69.37-2.2.71l.03,1.76c.33-1.02.82-1.93,2.01-1.93.88,0,1.2.64,1.2,1.24,0,.07,0,.54-.06.6-.43.47-2.11.67-2.85,1.14-.73.44-.93,1.07-.93,1.61,0,.61.43,1.74,1.67,1.74.99,0,1.74-.57,2.18-1.04.03.68.17.84.49,1.05l1.07-.48c-.45-.09-.42-.3-.42-.65Zm-1.16-.41c-.39.41-.91.74-1.59.74s-1.06-.43-1.06-1.18.5-1.07,1.16-1.32c.66-.21,1.05-.31,1.49-.54v2.31Zm4.09.87v-9.26l-1.73.34c.25.09.52.13.52.57v8.35c0,.31-.15.41-.36.54h1.94c-.22-.13-.36-.23-.36-.54Z"/>
</svg>