<?xml version="1.0" encoding="UTF-8"?>
<svg id="Layer_1" data-name="Layer 1" xmlns="http://www.w3.org/2000/svg" viewBox="0 0 235 110">
  <defs>
    <style>
      .cls-1 {
        fill: #a8a9cf;
      }

      .cls-2 {
        fill: #312e52;
      }

      .cls-3 {
        fill: #6b47f5;
      }
    </style>
  </defs>
  <path class="cls-1" d="m56.35,38.86s-16.31-9.45-24.92-1.64c-.26.33-.31.82-.08,1.18.08.13,2.23,3.46,7.32,3.46,2.56,0,4.58-1.23,6.56-2.43,1.89-1.15,3.69-2.25,5.89-2.25,1.95.03,3.56.77,5.22,1.69"/>
  <path class="cls-1" d="m74.89,44.13c-.15-.41-.54-.67-.97-.64-.15,0-4.07.2-6.63,4.69-1.28,2.23-1.23,4.61-1.18,6.94.05,2.23.08,4.35-1.02,6.27-.97,1.69-2.43,2.74-4.05,3.71,0-.03,16.26-9.55,13.85-20.97"/>
  <path class="cls-1" d="m47.41,69.95c-1.28-2.23-3.35-3.38-5.35-4.51-1.95-1.08-3.76-2.1-4.87-4.02-.97-1.69-1.13-3.48-1.18-5.4,0,0,.05,19,11.06,22.61.41.08.85-.15,1.05-.54.05-.13,1.84-3.66-.72-8.14"/>
  <path class="cls-3" d="m31.43,37.22c4.87-6.02,12.04-9.47,19.72-9.47s14.85,3.46,19.69,9.47c.28.36.31.87.03,1.25-.1.13-2.38,3.07-7.27,3.07-2.43,0-4.46-1.13-6.4-2.23-.28-.15-.54-.31-.82-.46-.03,0-16.34-9.47-24.94-1.64"/>
  <path class="cls-3" d="m74.89,44.13c2.74,7.25,2.13,15.26-1.72,21.97-3.84,6.68-10.4,11.24-18,12.47-.46.08-.9-.18-1.08-.61-.05-.15-1.46-3.61,1-7.91,1.23-2.13,3.2-3.33,5.12-4.48.28-.15.54-.33.79-.49.03,0,16.29-9.53,13.88-20.95"/>
  <path class="cls-3" d="m47.08,78.63c-7.61-1.23-14.16-5.79-18-12.47-3.84-6.68-4.46-14.7-1.72-21.97.15-.44.61-.69,1.05-.64.15.03,3.82.54,6.27,4.81,1.23,2.13,1.25,4.46,1.28,6.71,0,.31,0,.64.03.95.03,0,.05,19,11.09,22.61"/>
  <path class="cls-1" d="m56.35,38.86s-16.31-9.45-24.92-1.64c-.26.33-.31.82-.08,1.18.08.13,2.23,3.46,7.32,3.46,2.56,0,4.58-1.23,6.56-2.43,1.89-1.15,3.69-2.25,5.89-2.25,1.95.03,3.56.77,5.22,1.69"/>
  <path class="cls-1" d="m74.89,44.13c-.15-.41-.54-.67-.97-.64-.15,0-4.07.2-6.63,4.69-1.28,2.23-1.23,4.61-1.18,6.94.05,2.23.08,4.35-1.02,6.27-.97,1.69-2.43,2.74-4.05,3.71,0-.03,16.26-9.55,13.85-20.97"/>
  <path class="cls-1" d="m47.41,69.95c-1.28-2.23-3.35-3.38-5.35-4.51-1.95-1.08-3.76-2.1-4.87-4.02-.97-1.69-1.13-3.48-1.18-5.4,0,0,.05,19,11.06,22.61.41.08.85-.15,1.05-.54.05-.13,1.84-3.66-.72-8.14"/>
  <path class="cls-3" d="m31.43,37.22c4.87-6.02,12.04-9.47,19.72-9.47s14.85,3.46,19.69,9.47c.28.36.31.87.03,1.25-.1.13-2.38,3.07-7.27,3.07-2.43,0-4.46-1.13-6.4-2.23-.28-.15-.54-.31-.82-.46-.03,0-16.34-9.47-24.94-1.64"/>
  <path class="cls-3" d="m74.89,44.13c2.74,7.25,2.13,15.26-1.72,21.97-3.84,6.68-10.4,11.24-18,12.47-.46.08-.9-.18-1.08-.61-.05-.15-1.46-3.61,1-7.91,1.23-2.13,3.2-3.33,5.12-4.48.28-.15.54-.33.79-.49.03,0,16.29-9.53,13.88-20.95"/>
  <path class="cls-3" d="m47.08,78.63c-7.61-1.23-14.16-5.79-18-12.47-3.84-6.68-4.46-14.7-1.72-21.97.15-.44.61-.69,1.05-.64.15.03,3.82.54,6.27,4.81,1.23,2.13,1.25,4.46,1.28,6.71,0,.31,0,.64.03.95.03,0,.05,19,11.09,22.61"/>
  <path class="cls-2" d="m137.96,44.98h-3.07c-.74,0-3.79-.05-3.79-3.41,0-2.25,1.38-3.64,3.35-3.64,2.28,0,3.53,1.66,3.53,4.99v2.05h-.03Zm3.23-2.3c0-4.4-2-7.48-6.48-7.48-3.53,0-6.94,1.97-6.94,6.48s3.76,6.04,7.17,6.04h3.02v.44c0,1.77-1.1,3.61-3.64,3.61-1.43,0-2.41-.38-4.46-1.41-1.13,1.38-.44,2.51.64,3.05,1.31.64,2.77.97,4.23,1,4.71.08,6.45-2.74,6.45-7.45v-4.28Z"/>
  <path class="cls-2" d="m100.37,41.32c0,1.15-.28,2.05-.87,2.69-.59.64-1.38.97-2.43.97s-1.79-.28-2.36-.87c-.56-.56-.87-1.33-.87-2.3,0-1.2.46-2.13,1.36-2.74.9-.64,2.23-.95,3.97-.95h1.2v3.2h0Zm6.25,6.43h1.36c1.41,0,2.87.05,4.23-.44.74-.28,1.31-.77,1.72-1.46.67,1.25,1.79,1.89,3.41,1.89h8.73v-12.04c-.15-.1-.49-.15-.77-.23-.28-.05-.54-.08-.79-.08-.49,0-.9.13-1.2.38-.31.26-.46.61-.46,1.1v8.14h-3.41c-1.31,0-3.02.05-3.56-1.43-.2-.54-.28-1.28-.28-2.25v-5.61c-.15-.1-.49-.15-.77-.23-.28-.05-.54-.08-.79-.08-.49,0-.9.13-1.2.38-.31.26-.46.61-.46,1.1v4.43c0,.95-.1,1.69-.28,2.23-.44,1.25-1.79,1.46-2.97,1.49-.9.03-1.97.03-2.84,0-.69-.03-1.46-.18-1.97-.69-.44-.46-.64-1.25-.64-2.41v-6.5h-4.48c-2.64,0-4.74.56-6.25,1.72-1.54,1.13-2.28,2.71-2.28,4.71,0,1.18.26,2.23.79,3.1.54.9,1.28,1.59,2.23,2.07.97.49,2.18.74,3.43.74,2.1,0,3.76-.67,4.97-1.97.38.64.92,1.13,1.61,1.46.87.38,1.92.46,2.94.46"/>
  <path class="cls-2" d="m96.12,33.76c.51,0,.92-.18,1.28-.54s.51-.79.51-1.25c0-.49-.18-.92-.51-1.28-.36-.36-.77-.51-1.28-.51s-.9.18-1.25.51c-.36.36-.51.77-.51,1.28s.18.9.51,1.25c.33.36.77.54,1.25.54Z"/>
  <path class="cls-2" d="m100.96,33.76c.51,0,.95-.18,1.31-.54s.54-.79.54-1.25c0-.49-.18-.92-.54-1.28-.36-.36-.79-.51-1.31-.51s-.9.18-1.25.51c-.36.36-.54.77-.54,1.28s.18.9.54,1.25.77.54,1.25.54Z"/>
  <path class="cls-2" d="m124.44,33.71c.51,0,.92-.18,1.28-.54s.51-.79.51-1.25c0-.49-.18-.9-.51-1.25-.36-.36-.77-.54-1.28-.54s-.95.18-1.31.54c-.36.36-.56.79-.56,1.25,0,.49.18.9.56,1.25.36.36.79.54,1.31.54Z"/>
  <path class="cls-2" d="m207.74,27.74c-.95,0-1.66.46-1.66,1.46v18.51h3.25v-19.69c-.49-.2-1.15-.28-1.59-.28Z"/>
  <path class="cls-2" d="m191.99,33.76c.51,0,.95-.18,1.31-.54.36-.36.54-.79.54-1.25,0-.49-.18-.92-.54-1.28-.36-.36-.79-.51-1.31-.51s-.9.18-1.25.51c-.36.36-.51.77-.51,1.28s.18.9.51,1.25c.36.36.77.54,1.25.54Z"/>
  <path class="cls-2" d="m187.13,33.76c.51,0,.92-.18,1.28-.54.36-.36.51-.79.51-1.25,0-.49-.18-.92-.51-1.28-.36-.36-.77-.51-1.28-.51s-.9.18-1.25.51c-.36.36-.51.77-.51,1.28s.18.9.51,1.25c.36.36.77.54,1.25.54Z"/>
  <path class="cls-2" d="m203.93,47.72v-19.69c-.15-.1-.49-.15-.77-.23-.28-.05-.54-.08-.79-.08-.49,0-.9.13-1.2.38-.31.26-.46.61-.46,1.1v15.77h-9.3v-9.27c-.26-.1-.51-.2-.79-.28-.26-.05-.54-.08-.82-.08-.51,0-.92.13-1.2.38-.28.26-.44.64-.44,1.15v8.07h-11.24c-6.04,0-9.01-3.51-10.7-5.63,1.59-1.33,3.43-1.46,4.46-1.38,1.46.1,2.79.64,3.66,1.43-.56.74-1.72,2.05-3.05,3.1.85.46,1.82.9,2.94,1.1,1.84-1.72,3.12-3.56,3.56-4.28-.33-.51-2.07-3.79-6.97-4.12-5.28-.36-7.91,3.46-8.37,3.99,1.56,2,2.94,3.74,4.92,5.3-.95.28-2,.46-3.1.46h-18.21v-16.95c-.15-.1-.38-.15-.67-.23-.28-.05-.67-.08-.92-.08-.49,0-.9.13-1.2.38s-.46.61-.46,1.1v18.51h21.46c2.18,0,4.2-.54,5.97-1.41,2,.95,4.23,1.41,6.66,1.41h27.04v.05Z"/>
  <path class="cls-2" d="m111.33,53.07c.51,0,.92-.18,1.28-.54.36-.36.51-.79.51-1.25,0-.49-.18-.92-.51-1.28-.36-.36-.77-.51-1.28-.51s-.9.18-1.25.51c-.36.36-.51.77-.51,1.28s.18.9.51,1.25c.36.36.77.54,1.25.54Z"/>
  <path class="cls-2" d="m116.19,53.07c.51,0,.95-.18,1.31-.54.36-.36.54-.79.54-1.25,0-.49-.18-.92-.54-1.28-.36-.36-.79-.51-1.31-.51s-.9.18-1.25.51c-.36.36-.51.77-.51,1.28s.18.9.51,1.25c.33.36.77.54,1.25.54Z"/>
  <path class="cls-2" d="m137.96,44.98h-3.07c-.74,0-3.79-.05-3.79-3.41,0-2.25,1.38-3.64,3.35-3.64,2.28,0,3.53,1.66,3.53,4.99v2.05h-.03Zm3.23-2.3c0-4.4-2-7.48-6.48-7.48-3.53,0-6.94,1.97-6.94,6.48s3.76,6.04,7.17,6.04h3.02v.44c0,1.77-1.1,3.61-3.64,3.61-1.43,0-2.41-.38-4.46-1.41-1.13,1.38-.44,2.51.64,3.05,1.31.64,2.77.97,4.23,1,4.71.08,6.45-2.74,6.45-7.45v-4.28Z"/>
  <path class="cls-2" d="m100.37,41.32c0,1.15-.28,2.05-.87,2.69-.59.64-1.38.97-2.43.97s-1.79-.28-2.36-.87c-.56-.56-.87-1.33-.87-2.3,0-1.2.46-2.13,1.36-2.74.9-.64,2.23-.95,3.97-.95h1.2v3.2h0Zm6.25,6.43h1.36c1.41,0,2.87.05,4.23-.44.74-.28,1.31-.77,1.72-1.46.67,1.25,1.79,1.89,3.41,1.89h8.73v-12.04c-.15-.1-.49-.15-.77-.23-.28-.05-.54-.08-.79-.08-.49,0-.9.13-1.2.38-.31.26-.46.61-.46,1.1v8.14h-3.41c-1.31,0-3.02.05-3.56-1.43-.2-.54-.28-1.28-.28-2.25v-5.61c-.15-.1-.49-.15-.77-.23-.28-.05-.54-.08-.79-.08-.49,0-.9.13-1.2.38-.31.26-.46.61-.46,1.1v4.43c0,.95-.1,1.69-.28,2.23-.44,1.25-1.79,1.46-2.97,1.49-.9.03-1.97.03-2.84,0-.69-.03-1.46-.18-1.97-.69-.44-.46-.64-1.25-.64-2.41v-6.5h-4.48c-2.64,0-4.74.56-6.25,1.72-1.54,1.13-2.28,2.71-2.28,4.71,0,1.18.26,2.23.79,3.1.54.9,1.28,1.59,2.23,2.07.97.49,2.18.74,3.43.74,2.1,0,3.76-.67,4.97-1.97.38.64.92,1.13,1.61,1.46.87.38,1.92.46,2.94.46"/>
  <path class="cls-2" d="m96.12,33.76c.51,0,.92-.18,1.28-.54s.51-.79.51-1.25c0-.49-.18-.92-.51-1.28-.36-.36-.77-.51-1.28-.51s-.9.18-1.25.51c-.36.36-.51.77-.51,1.28s.18.9.51,1.25c.33.36.77.54,1.25.54Z"/>
  <path class="cls-2" d="m100.96,33.76c.51,0,.95-.18,1.31-.54s.54-.79.54-1.25c0-.49-.18-.92-.54-1.28-.36-.36-.79-.51-1.31-.51s-.9.18-1.25.51c-.36.36-.54.77-.54,1.28s.18.9.54,1.25.77.54,1.25.54Z"/>
  <path class="cls-2" d="m124.44,33.71c.51,0,.92-.18,1.28-.54s.51-.79.51-1.25c0-.49-.18-.9-.51-1.25-.36-.36-.77-.54-1.28-.54s-.95.18-1.31.54c-.36.36-.56.79-.56,1.25,0,.49.18.9.56,1.25.36.36.79.54,1.31.54Z"/>
  <path class="cls-2" d="m207.74,27.74c-.95,0-1.66.46-1.66,1.46v18.51h3.25v-19.69c-.49-.2-1.15-.28-1.59-.28Z"/>
  <path class="cls-2" d="m191.99,33.76c.51,0,.95-.18,1.31-.54.36-.36.54-.79.54-1.25,0-.49-.18-.92-.54-1.28-.36-.36-.79-.51-1.31-.51s-.9.18-1.25.51c-.36.36-.51.77-.51,1.28s.18.9.51,1.25c.36.36.77.54,1.25.54Z"/>
  <path class="cls-2" d="m187.13,33.76c.51,0,.92-.18,1.28-.54.36-.36.51-.79.51-1.25,0-.49-.18-.92-.51-1.28-.36-.36-.77-.51-1.28-.51s-.9.18-1.25.51c-.36.36-.51.77-.51,1.28s.18.9.51,1.25c.36.36.77.54,1.25.54Z"/>
  <path class="cls-2" d="m203.93,47.72v-19.69c-.15-.1-.49-.15-.77-.23-.28-.05-.54-.08-.79-.08-.49,0-.9.13-1.2.38-.31.26-.46.61-.46,1.1v15.77h-9.3v-9.27c-.26-.1-.51-.2-.79-.28-.26-.05-.54-.08-.82-.08-.51,0-.92.13-1.2.38-.28.26-.44.64-.44,1.15v8.07h-11.24c-6.04,0-9.01-3.51-10.7-5.63,1.59-1.33,3.43-1.46,4.46-1.38,1.46.1,2.79.64,3.66,1.43-.56.74-1.72,2.05-3.05,3.1.85.46,1.82.9,2.94,1.1,1.84-1.72,3.12-3.56,3.56-4.28-.33-.51-2.07-3.79-6.97-4.12-5.28-.36-7.91,3.46-8.37,3.99,1.56,2,2.94,3.74,4.92,5.3-.95.28-2,.46-3.1.46h-18.21v-16.95c-.15-.1-.38-.15-.67-.23-.28-.05-.67-.08-.92-.08-.49,0-.9.13-1.2.38s-.46.61-.46,1.1v18.51h21.46c2.18,0,4.2-.54,5.97-1.41,2,.95,4.23,1.41,6.66,1.41h27.04v.05Z"/>
  <path class="cls-2" d="m111.33,53.07c.51,0,.92-.18,1.28-.54.36-.36.51-.79.51-1.25,0-.49-.18-.92-.51-1.28-.36-.36-.77-.51-1.28-.51s-.9.18-1.25.51c-.36.36-.51.77-.51,1.28s.18.9.51,1.25c.36.36.77.54,1.25.54Z"/>
  <path class="cls-2" d="m116.19,53.07c.51,0,.95-.18,1.31-.54.36-.36.54-.79.54-1.25,0-.49-.18-.92-.54-1.28-.36-.36-.79-.51-1.31-.51s-.9.18-1.25.51c-.36.36-.51.77-.51,1.28s.18.9.51,1.25c.33.36.77.54,1.25.54Z"/>
  <path class="cls-2" d="m102.24,71.79c-.2.15-.51.38-1,.56-.49.18-1,.26-1.54.26-.33,0-.67-.03-.97-.1-.31-.08-.59-.2-.82-.41-.23-.18-.44-.44-.56-.74s-.2-.72-.2-1.2v-6.35h5.45c.05-.1.13-.31.23-.59.1-.28.15-.56.15-.9,0-.49-.13-.87-.38-1.13-.26-.26-.69-.38-1.33-.38h-4.12v-3.74c-.1-.03-.28-.1-.59-.18-.31-.08-.61-.13-.95-.13-.54,0-.95.13-1.25.36-.31.23-.46.61-.46,1.15v2.54h-1.64c-.61,0-1.08.13-1.33.38-.26.26-.38.64-.38,1.13,0,.33.05.61.15.9.1.28.18.46.23.59h2.97v6.99c0,1.41.44,2.54,1.28,3.41.85.87,2.13,1.31,3.79,1.31.59,0,1.13-.05,1.61-.15.49-.1.95-.23,1.33-.38.41-.15.74-.31,1-.49.28-.18.49-.31.64-.44,0,0-.13-.59-.49-1.18-.33-.61-.82-1.08-.82-1.08"/>
  <path class="cls-2" d="m176.27,60.8c-.56,0-.97.13-1.28.36s-.46.61-.46,1.15v12.78h3.25v-13.98c-.1-.03-.28-.1-.56-.18-.31-.08-.61-.13-.95-.13"/>
  <path class="cls-2" d="m176.14,54.4c-.56,0-1.02.18-1.41.56-.38.38-.56.85-.56,1.38s.18,1.02.56,1.38c.38.38.85.56,1.41.56s1.02-.18,1.38-.56c.38-.38.56-.85.56-1.38s-.18-1.02-.56-1.38c-.36-.38-.82-.56-1.38-.56Z"/>
  <path class="cls-2" d="m206.1,72.79c-.72.08-2.56.15-2.74.15-1,.03-2.07-.03-3.05-.38-.85-.31-1.61-1-1.79-1.89-.03-.13-.03-.26-.03-.41.03-.9.61-1.77,1.41-2.18.9-.49,2.1-.41,3.1-.36.92.05,2.13.18,3.1.28v4.79h0Zm1.1-11.01c-.67-.46-1.46-.82-2.38-1.05-.92-.2-1.95-.33-3.05-.33-.92,0-1.69.05-2.3.18-.61.1-1.1.28-1.46.46-.36.2-.61.44-.77.69s-.2.51-.2.79c0,.38.1.69.31.97.2.26.36.44.46.54.2-.18.64-.38,1.31-.61.67-.26,1.51-.36,2.61-.36.64,0,1.23.05,1.77.15.54.1.97.26,1.36.51.38.26.67.59.9,1.02.1.18.15.41.2.64-1.66-.2-3.61-.36-4.74-.26-1.18.1-2.41.33-3.41.97-2.18,1.38-2.92,4.3-1.66,6.56.61,1.08,1.69,1.82,2.87,2.25,1.18.41,2.43.54,3.66.59,1.89.08,3.84-.05,5.74-.28.41-.05.72-.08.9-.13v-8.58c0-1.1-.18-2.05-.56-2.82-.36-.82-.87-1.43-1.54-1.92"/>
  <path class="cls-2" d="m114.71,72.79c-.72.08-2.56.15-2.74.15-1,.03-2.07-.03-3.05-.38-.85-.31-1.61-1-1.79-1.89-.03-.13-.03-.26-.03-.41.03-.9.61-1.77,1.41-2.18.9-.49,2.1-.41,3.1-.36.92.05,2.13.18,3.1.28v4.79Zm25.3-12.01c-.51-.05-1.05.1-1.41.46-.26.26-.38.61-.51.97-1.02,2.87-2.02,5.74-3.05,8.58-1.08-3.07-2.13-6.12-3.2-9.19-.05-.18-.13-.36-.26-.49-.15-.15-.38-.18-.59-.23-.79-.13-1.72-.23-2.28.33-.26.26-.38.59-.51.92-1,2.74-2,5.48-2.94,8.22-.49-1.28-.44-1.25-.95-2.54-.05-.15-.13-.31-.26-.38-.1-.08-.33-.15-.46-.18-1.49-.41-3.94-1.13-5.74-1.56-.08-.77-.23-1.46-.51-2.05-.36-.77-.9-1.41-1.56-1.87-.67-.46-1.46-.82-2.38-1.05-.92-.2-1.95-.33-3.05-.33-.92,0-1.69.05-2.3.18-.61.1-1.1.28-1.46.46-.36.2-.61.44-.74.69-.15.26-.2.51-.2.79,0,.38.1.69.31.97.2.26.36.44.46.54.2-.18.64-.38,1.31-.61.67-.26,1.51-.36,2.61-.36.64,0,1.23.05,1.77.15.54.1.97.26,1.36.51.38.26.67.59.9,1.02.1.18.15.41.2.64-1.66-.2-3.61-.36-4.74-.26-1.2.1-2.41.33-3.41.97-2.18,1.38-2.92,4.3-1.66,6.56.61,1.08,1.69,1.82,2.87,2.25,1.18.41,2.43.54,3.66.59,1.92.08,3.84-.05,5.74-.28.41-.05.72-.08.9-.13v-6.5c1.56.36,3.43.87,3.48.92.41.38,2.15,5.63,2.18,5.63h3.35c1.08-3.23,2.13-6.45,3.1-9.71.97,3.25,2.05,6.48,3.15,9.71h3.38c1.64-4.61,3.25-9.24,4.89-13.85h0c-.46-.28-.95-.46-1.43-.51"/>
  <path class="cls-2" d="m120.6,60.8c-.54,0-.95.15-1.23.46-.26.31-.31.51-.31.9,0,.08.38,1.33.95,2.92l3.71,1.05c-.69-1.97-1.56-4.66-1.66-5.04-.08-.05-.23-.1-.46-.18-.26-.08-.59-.1-1-.1Z"/>
  <path class="cls-2" d="m155.14,60.78c-.54,0-.95.13-1.25.36-.28.2-.44.56-.46,1v6.86c0,1.28-.31,2.28-.92,2.94-.61.67-1.54,1-2.77,1s-2.13-.33-2.77-1c-.61-.67-.95-1.66-.95-2.94v-7.91c-.1-.03-.28-.1-.59-.18-.28-.08-.61-.13-.95-.13-.54,0-.95.13-1.25.36s-.46.61-.46,1.15v7.55c0,.95.18,1.79.51,2.54.33.74.82,1.38,1.43,1.89.61.51,1.36.92,2.2,1.2.85.28,1.79.41,2.79.41s1.92-.13,2.77-.41,1.56-.67,2.2-1.2c.61-.51,1.1-1.15,1.46-1.89.36-.74.54-1.59.54-2.54v-8.73c-.1-.03-.28-.1-.59-.18-.28-.1-.59-.15-.95-.15Z"/>
  <path class="cls-2" d="m170.58,61.98c-.61-.51-1.36-.92-2.2-1.2-.85-.28-1.77-.41-2.77-.41s-1.95.13-2.79.41c-.85.28-1.59.67-2.2,1.2-.61.51-1.1,1.15-1.43,1.89-.33.74-.51,1.59-.51,2.54v7.55c0,.51.15.9.46,1.15.31.23.72.36,1.25.36.33,0,.67-.05.95-.13.28-.08.49-.15.59-.18v-7.91c0-1.28.31-2.28.95-2.94.61-.67,1.54-1,2.77-1s2.15.33,2.77,1c.61.67.92,1.66.92,2.94v6.86c.03.46.18.79.46,1,.31.23.72.36,1.25.36.33,0,.67-.05.95-.13.28-.08.49-.15.59-.18v-8.73c0-.95-.18-1.79-.54-2.54-.38-.74-.87-1.38-1.46-1.92"/>
  <path class="cls-2" d="m192.43,60.8c-.54,0-.95.13-1.25.36-.31.26-.46.61-.46,1.13v6.09c0,1.31-.33,2.3-1,2.97-.67.67-1.56,1-2.74,1-1.25,0-2.18-.33-2.77-1-.59-.67-.9-1.56-.9-2.66v-7.61c-.1-.03-.28-.1-.59-.18-.31-.08-.61-.13-.95-.13-.54,0-.95.13-1.25.36-.31.26-.46.61-.46,1.13v7.09c0,.92.15,1.77.46,2.48s.74,1.33,1.31,1.82c.54.49,1.2.85,2,1.1.77.26,1.61.38,2.54.38.97,0,1.84-.15,2.66-.49.79-.33,1.41-.77,1.77-1.33,0,4.02-.54,6.38-4.76,6.38-2.33,0-3.97-.51-4.61-.79-.1.23-.59,1.18-.33,2,.18.54.67.79,1.18.95,1.49.44,4.51.64,6.43.33,3.99-.64,5.25-3.38,5.25-8.58v-12.47c-.1-.03-.28-.1-.59-.18-.26-.13-.59-.15-.92-.15"/>
  <path class="cls-2" d="m102.24,71.79c-.2.15-.51.38-1,.56-.49.18-1,.26-1.54.26-.33,0-.67-.03-.97-.1-.31-.08-.59-.2-.82-.41-.23-.18-.44-.44-.56-.74s-.2-.72-.2-1.2v-6.35h5.45c.05-.1.13-.31.23-.59.1-.28.15-.56.15-.9,0-.49-.13-.87-.38-1.13-.26-.26-.69-.38-1.33-.38h-4.12v-3.74c-.1-.03-.28-.1-.59-.18-.31-.08-.61-.13-.95-.13-.54,0-.95.13-1.25.36-.31.23-.46.61-.46,1.15v2.54h-1.64c-.61,0-1.08.13-1.33.38-.26.26-.38.64-.38,1.13,0,.33.05.61.15.9.1.28.18.46.23.59h2.97v6.99c0,1.41.44,2.54,1.28,3.41.85.87,2.13,1.31,3.79,1.31.59,0,1.13-.05,1.61-.15.49-.1.95-.23,1.33-.38.41-.15.74-.31,1-.49.28-.18.49-.31.64-.44,0,0-.13-.59-.49-1.18-.33-.61-.82-1.08-.82-1.08"/>
  <path class="cls-2" d="m176.27,60.8c-.56,0-.97.13-1.28.36s-.46.61-.46,1.15v12.78h3.25v-13.98c-.1-.03-.28-.1-.56-.18-.31-.08-.61-.13-.95-.13"/>
  <path class="cls-2" d="m176.14,54.4c-.56,0-1.02.18-1.41.56-.38.38-.56.85-.56,1.38s.18,1.02.56,1.38c.38.38.85.56,1.41.56s1.02-.18,1.38-.56c.38-.38.56-.85.56-1.38s-.18-1.02-.56-1.38c-.36-.38-.82-.56-1.38-.56Z"/>
  <path class="cls-2" d="m206.1,72.79c-.72.08-2.56.15-2.74.15-1,.03-2.07-.03-3.05-.38-.85-.31-1.61-1-1.79-1.89-.03-.13-.03-.26-.03-.41.03-.9.61-1.77,1.41-2.18.9-.49,2.1-.41,3.1-.36.92.05,2.13.18,3.1.28v4.79h0Zm1.1-11.01c-.67-.46-1.46-.82-2.38-1.05-.92-.2-1.95-.33-3.05-.33-.92,0-1.69.05-2.3.18-.61.1-1.1.28-1.46.46-.36.2-.61.44-.77.69s-.2.51-.2.79c0,.38.1.69.31.97.2.26.36.44.46.54.2-.18.64-.38,1.31-.61.67-.26,1.51-.36,2.61-.36.64,0,1.23.05,1.77.15.54.1.97.26,1.36.51.38.26.67.59.9,1.02.1.18.15.41.2.64-1.66-.2-3.61-.36-4.74-.26-1.18.1-2.41.33-3.41.97-2.18,1.38-2.92,4.3-1.66,6.56.61,1.08,1.69,1.82,2.87,2.25,1.18.41,2.43.54,3.66.59,1.89.08,3.84-.05,5.74-.28.41-.05.72-.08.9-.13v-8.58c0-1.1-.18-2.05-.56-2.82-.36-.82-.87-1.43-1.54-1.92"/>
  <path class="cls-2" d="m114.71,72.79c-.72.08-2.56.15-2.74.15-1,.03-2.07-.03-3.05-.38-.85-.31-1.61-1-1.79-1.89-.03-.13-.03-.26-.03-.41.03-.9.61-1.77,1.41-2.18.9-.49,2.1-.41,3.1-.36.92.05,2.13.18,3.1.28v4.79Zm25.3-12.01c-.51-.05-1.05.1-1.41.46-.26.26-.38.61-.51.97-1.02,2.87-2.02,5.74-3.05,8.58-1.08-3.07-2.13-6.12-3.2-9.19-.05-.18-.13-.36-.26-.49-.15-.15-.38-.18-.59-.23-.79-.13-1.72-.23-2.28.33-.26.26-.38.59-.51.92-1,2.74-2,5.48-2.94,8.22-.49-1.28-.44-1.25-.95-2.54-.05-.15-.13-.31-.26-.38-.1-.08-.33-.15-.46-.18-1.49-.41-3.94-1.13-5.74-1.56-.08-.77-.23-1.46-.51-2.05-.36-.77-.9-1.41-1.56-1.87-.67-.46-1.46-.82-2.38-1.05-.92-.2-1.95-.33-3.05-.33-.92,0-1.69.05-2.3.18-.61.1-1.1.28-1.46.46-.36.2-.61.44-.74.69-.15.26-.2.51-.2.79,0,.38.1.69.31.97.2.26.36.44.46.54.2-.18.64-.38,1.31-.61.67-.26,1.51-.36,2.61-.36.64,0,1.23.05,1.77.15.54.1.97.26,1.36.51.38.26.67.59.9,1.02.1.18.15.41.2.64-1.66-.2-3.61-.36-4.74-.26-1.2.1-2.41.33-3.41.97-2.18,1.38-2.92,4.3-1.66,6.56.61,1.08,1.69,1.82,2.87,2.25,1.18.41,2.43.54,3.66.59,1.92.08,3.84-.05,5.74-.28.41-.05.72-.08.9-.13v-6.5c1.56.36,3.43.87,3.48.92.41.38,2.15,5.63,2.18,5.63h3.35c1.08-3.23,2.13-6.45,3.1-9.71.97,3.25,2.05,6.48,3.15,9.71h3.38c1.64-4.61,3.25-9.24,4.89-13.85h0c-.46-.28-.95-.46-1.43-.51"/>
  <path class="cls-2" d="m120.6,60.8c-.54,0-.95.15-1.23.46-.26.31-.31.51-.31.9,0,.08.38,1.33.95,2.92l3.71,1.05c-.69-1.97-1.56-4.66-1.66-5.04-.08-.05-.23-.1-.46-.18-.26-.08-.59-.1-1-.1Z"/>
  <path class="cls-2" d="m155.14,60.78c-.54,0-.95.13-1.25.36-.28.2-.44.56-.46,1v6.86c0,1.28-.31,2.28-.92,2.94-.61.67-1.54,1-2.77,1s-2.13-.33-2.77-1c-.61-.67-.95-1.66-.95-2.94v-7.91c-.1-.03-.28-.1-.59-.18-.28-.08-.61-.13-.95-.13-.54,0-.95.13-1.25.36s-.46.61-.46,1.15v7.55c0,.95.18,1.79.51,2.54.33.74.82,1.38,1.43,1.89.61.51,1.36.92,2.2,1.2.85.28,1.79.41,2.79.41s1.92-.13,2.77-.41,1.56-.67,2.2-1.2c.61-.51,1.1-1.15,1.46-1.89.36-.74.54-1.59.54-2.54v-8.73c-.1-.03-.28-.1-.59-.18-.28-.1-.59-.15-.95-.15Z"/>
  <path class="cls-2" d="m170.58,61.98c-.61-.51-1.36-.92-2.2-1.2-.85-.28-1.77-.41-2.77-.41s-1.95.13-2.79.41c-.85.28-1.59.67-2.2,1.2-.61.51-1.1,1.15-1.43,1.89-.33.74-.51,1.59-.51,2.54v7.55c0,.51.15.9.46,1.15.31.23.72.36,1.25.36.33,0,.67-.05.95-.13.28-.08.49-.15.59-.18v-7.91c0-1.28.31-2.28.95-2.94.61-.67,1.54-1,2.77-1s2.15.33,2.77,1c.61.67.92,1.66.92,2.94v6.86c.03.46.18.79.46,1,.31.23.72.36,1.25.36.33,0,.67-.05.95-.13.28-.08.49-.15.59-.18v-8.73c0-.95-.18-1.79-.54-2.54-.38-.74-.87-1.38-1.46-1.92"/>
  <path class="cls-2" d="m192.43,60.8c-.54,0-.95.13-1.25.36-.31.26-.46.61-.46,1.13v6.09c0,1.31-.33,2.3-1,2.97-.67.67-1.56,1-2.74,1-1.25,0-2.18-.33-2.77-1-.59-.67-.9-1.56-.9-2.66v-7.61c-.1-.03-.28-.1-.59-.18-.31-.08-.61-.13-.95-.13-.54,0-.95.13-1.25.36-.31.26-.46.61-.46,1.13v7.09c0,.92.15,1.77.46,2.48s.74,1.33,1.31,1.82c.54.49,1.2.85,2,1.1.77.26,1.61.38,2.54.38.97,0,1.84-.15,2.66-.49.79-.33,1.41-.77,1.77-1.33,0,4.02-.54,6.38-4.76,6.38-2.33,0-3.97-.51-4.61-.79-.1.23-.59,1.18-.33,2,.18.54.67.79,1.18.95,1.49.44,4.51.64,6.43.33,3.99-.64,5.25-3.38,5.25-8.58v-12.47c-.1-.03-.28-.1-.59-.18-.26-.13-.59-.15-.92-.15"/>
</svg>