<?xml version="1.0" encoding="utf-8"?>
<!-- Generator: Adobe Illustrator 16.0.0, SVG Export Plug-In . SVG Version: 6.00 Build 0)  -->
<!DOCTYPE svg PUBLIC "-//W3C//DTD SVG 1.1//EN" "http://www.w3.org/Graphics/SVG/1.1/DTD/svg11.dtd">
<svg version="1.1" id="Layer_1" xmlns="http://www.w3.org/2000/svg" xmlns:xlink="http://www.w3.org/1999/xlink" x="0px" y="0px"
	 width="102px" height="102px" viewBox="0 0 102 102" enable-background="new 0 0 102 102" xml:space="preserve">
<path d="M77.014,37.689c2.614-6.072-1.651-11.547-9.368-21.487l-4.3-5.502C58.673,4.65,55.842,1,51.006,1
	c-4.846,0-7.677,3.65-12.351,9.705l-4.287,5.492c-7.729,9.939-11.988,15.42-9.394,21.459c2.708,6.184,9.476,6.184,21.742,6.184
	h0.023v52.874c0,2.366,1.921,4.286,4.288,4.286s4.288-1.92,4.288-4.286V43.84C67.567,43.84,74.323,43.834,77.014,37.689z
	 M69.275,34.235c-1.061,1.032-7.923,1.032-13.992,1.032h-8.576c-6.065,0-12.938,0-14.016-1.077
	c-0.547-1.312,4.154-7.361,8.309-12.697l4.277-5.486c0,0,0.006-0.005,0.012-0.017c2.126-2.745,4.779-6.172,5.717-6.435h0.012
	c0.91,0.263,3.551,3.689,5.684,6.435l4.3,5.515C65.149,26.84,69.856,32.89,69.275,34.235z"/>
</svg>
